<?xml version="1.0" encoding="UTF-8"?>
<svg id="Layer_2" data-name="Layer 2" xmlns="http://www.w3.org/2000/svg" viewBox="0 0 174.5 171">
  <defs>
    <style>
      .cls-1 {
        fill: #a57683;
      }

      .cls-1, .cls-2, .cls-3 {
        stroke-width: 0px;
      }

      .cls-2 {
        fill: #ce96a6;
      }

      .cls-3 {
        fill: #be748a;
      }
    </style>
  </defs>
  <g id="Layer_1-2" data-name="Layer 1">
    <g>
      <path class="cls-2" d="M70.12,117.99C29.96,87.27,10.12,41.72,14.27,0H4.56C1.59,11.17,0,22.9,0,35c0,75.11,60.89,136,136,136,13.37,0,26.29-1.94,38.5-5.54v-16.84c-34.59,3.71-72.6-6.33-104.38-30.63Z"/>
      <path class="cls-1" d="M81.82,100.33C55.65,79.79,49.88,40.4,63.38,0H14.27c-4.15,41.72,15.68,87.27,55.85,117.99,31.78,24.3,69.78,34.35,104.38,30.63v-48.89c-33.45,17.85-68.71,19.41-92.68.59Z"/>
      <path class="cls-3" d="M63.38,0c-13.5,40.4-7.73,79.79,18.44,100.33,23.97,18.81,59.23,17.26,92.68-.59V0H63.38Z"/>
    </g>
  </g>
</svg>